<?xml version="1.0" encoding="UTF-8"?>
<svg width="17px" height="18px" viewBox="0 0 17 18" version="1.1" xmlns="http://www.w3.org/2000/svg" xmlns:xlink="http://www.w3.org/1999/xlink">
    <title>icon-link</title>
    <defs>
        <filter id="filter-1">
            <feColorMatrix in="SourceGraphic" type="matrix" values="0 0 0 0 0.870588 0 0 0 0 0.870588 0 0 0 0 0.870588 0 0 0 1.000000 0"></feColorMatrix>
        </filter>
    </defs>
    <g id="Website" stroke="none" stroke-width="1" fill="none" fill-rule="evenodd">
        <g id="Desktop" transform="translate(-967.000000, -232.000000)">
            <g id="icon-link" transform="translate(268.120000, 172.423077)" filter="url(#filter-1)">
                <g transform="translate(699.380000, 60.076923)">
                    <path d="M6.8522449,9.99673469 C6.64,9.99673469 6.42612245,9.91510204 6.2644898,9.75346939 C4.74122449,8.23020408 4.74122449,5.75346939 6.2644898,4.23183673 L9.3355102,1.15755102 C10.0734694,0.42122449 11.0546939,0.0146938776 12.0963265,0.0146938776 C13.1395918,0.0146938776 14.1191837,0.42122449 14.8571429,1.15918367 C16.3804082,2.68244898 16.3804082,5.15918367 14.8571429,6.68081633 L13.4530612,8.08489796 C13.1281633,8.40979592 12.6008163,8.40979592 12.2759184,8.08489796 C11.9510204,7.76 11.9510204,7.23265306 12.2759184,6.9077551 L13.68,5.50367347 C14.5534694,4.63020408 14.5534694,3.20816327 13.68,2.33469388 C13.2571429,1.91183673 12.6938776,1.67836735 12.0963265,1.67836735 C11.4971429,1.67836735 10.9355102,1.91183673 10.5126531,2.33469388 L7.44,5.40734694 C6.56653061,6.28081633 6.56653061,7.70285714 7.44,8.57632653 C7.76489796,8.90122449 7.76489796,9.42857143 7.44,9.75346939 C7.27673469,9.91510204 7.0644898,9.99673469 6.8522449,9.99673469 L6.8522449,9.99673469 Z" id="Path" fill="#000000" fill-rule="nonzero"></path>
                    <path d="M3.90367347,16.0179592 C2.86040816,16.0179592 1.88081633,15.6114286 1.14285714,14.8734694 C-0.380408163,13.3502041 -0.380408163,10.8734694 1.14285714,9.35183673 L2.54693878,7.9477551 C2.87183673,7.62285714 3.39918367,7.62285714 3.72408163,7.9477551 C4.04897959,8.27265306 4.04897959,8.8 3.72408163,9.12489796 L2.32,10.5289796 C1.44653061,11.402449 1.44653061,12.8244898 2.32,13.6979592 C2.74285714,14.1208163 3.30612245,14.3542857 3.90367347,14.3542857 C4.50122449,14.3542857 5.0644898,14.1208163 5.48734694,13.6979592 L8.56,10.6253061 C9.43346939,9.75183673 9.43346939,8.32979592 8.56,7.45632653 C8.23510204,7.13142857 8.23510204,6.60408163 8.56,6.27918367 C8.88489796,5.95428571 9.4122449,5.95428571 9.73714286,6.27918367 C11.2604082,7.80244898 11.2604082,10.2791837 9.73714286,11.8008163 L6.6644898,14.875102 C5.92653061,15.6114286 4.94530612,16.0179592 3.90367347,16.0179592 L3.90367347,16.0179592 Z" id="Path" fill="#000000" fill-rule="nonzero"></path>
                </g>
            </g>
        </g>
    </g>
</svg>