<?xml version="1.0" encoding="UTF-8"?>
<svg width="16px" height="17px" viewBox="0 0 16 17" version="1.1" xmlns="http://www.w3.org/2000/svg" xmlns:xlink="http://www.w3.org/1999/xlink">
    <title>Untitled</title>
    <g id="Page-1" stroke="none" stroke-width="1" fill="none" fill-rule="evenodd">
        <g id="search" fill="#332C1D" fill-rule="nonzero">
            <path d="M6.83333333,0.5 C10.6072791,0.5 13.6666667,3.55938754 13.6666667,7.33333333 C13.6666667,8.85953498 13.1663246,10.2688755 12.320722,11.4062733 L15.7071068,14.7928932 C16.0976311,15.1834175 16.0976311,15.8165825 15.7071068,16.2071068 C15.3165825,16.5976311 14.6834175,16.5976311 14.2928932,16.2071068 L10.9062733,12.820722 C9.76887548,13.6663246 8.35953498,14.1666667 6.83333333,14.1666667 C3.05938754,14.1666667 0,11.1072791 0,7.33333333 C0,3.55938754 3.05938754,0.5 6.83333333,0.5 Z M6.83333333,2.5 C4.16395704,2.5 2,4.66395704 2,7.33333333 C2,10.0027096 4.16395704,12.1666667 6.83333333,12.1666667 C9.50270962,12.1666667 11.6666667,10.0027096 11.6666667,7.33333333 C11.6666667,4.66395704 9.50270962,2.5 6.83333333,2.5 Z" id="path-2"></path>
        </g>
    </g>
</svg>