<?xml version="1.0" encoding="UTF-8"?>
<svg width="16px" height="17px" viewBox="0 0 16 17" version="1.1" xmlns="http://www.w3.org/2000/svg" xmlns:xlink="http://www.w3.org/1999/xlink">
    <title>atom/icons/general/stroke/16-arrowdouble</title>
    <defs>
        <filter id="filter-1">
            <feColorMatrix in="SourceGraphic" type="matrix" values="0 0 0 0 0.200000 0 0 0 0 0.172549 0 0 0 0 0.113725 0 0 0 1.000000 0"></feColorMatrix>
        </filter>
        <path d="M6.83333333,0 C10.6072791,0 13.6666667,3.05938754 13.6666667,6.83333333 C13.6666667,8.35953498 13.1663246,9.76887548 12.320722,10.9062733 L15.7071068,14.2928932 C16.0976311,14.6834175 16.0976311,15.3165825 15.7071068,15.7071068 C15.3165825,16.0976311 14.6834175,16.0976311 14.2928932,15.7071068 L10.9062733,12.320722 C9.76887548,13.1663246 8.35953498,13.6666667 6.83333333,13.6666667 C3.05938754,13.6666667 0,10.6072791 0,6.83333333 C0,3.05938754 3.05938754,0 6.83333333,0 Z M6.83333333,2 C4.16395704,2 2,4.16395704 2,6.83333333 C2,9.50270962 4.16395704,11.6666667 6.83333333,11.6666667 C9.50270962,11.6666667 11.6666667,9.50270962 11.6666667,6.83333333 C11.6666667,4.16395704 9.50270962,2 6.83333333,2 Z" id="path-2"></path>
    </defs>
    <g id="Website" stroke="none" stroke-width="1" fill="none" fill-rule="evenodd">
        <g id="Desktop" transform="translate(-340.000000, -98.000000)">
            <g id="Filters" transform="translate(28.000000, 75.000000)">
                <g id="Group-9" transform="translate(15.000000, 15.335717)">
                    <g id="atom/icons/general/stroke/16-arrowdouble" transform="translate(297.000000, 8.164283)" filter="url(#filter-1)">
                        <g>
                            <mask id="mask-3" fill="white">
                                <use xlink:href="#path-2"></use>
                            </mask>
                            <use id="ico/search-16" fill="#4B4440" xlink:href="#path-2"></use>
                        </g>
                    </g>
                </g>
            </g>
        </g>
    </g>
</svg>