<?xml version="1.0" encoding="UTF-8"?>
<svg width="15px" height="17px" viewBox="0 0 15 17" version="1.1" xmlns="http://www.w3.org/2000/svg" xmlns:xlink="http://www.w3.org/1999/xlink">
    <title>icon-copy</title>
    <defs>
        <filter id="filter-1">
            <feColorMatrix in="SourceGraphic" type="matrix" values="0 0 0 0 0.870075 0 0 0 0 0.870075 0 0 0 0 0.870075 0 0 0 1.000000 0"></feColorMatrix>
        </filter>
    </defs>
    <g id="Website" stroke="none" stroke-width="1" fill="none" fill-rule="evenodd">
        <g id="Desktop" transform="translate(-997.000000, -232.000000)">
            <g id="icon-copy" transform="translate(268.120000, 172.423077)" filter="url(#filter-1)">
                <g transform="translate(736.353684, 68.109576) scale(-1, 1) translate(-736.353684, -68.109576) translate(729.353684, 60.109576)">
                    <path d="M0.696914701,12.5444646 L2.7876588,12.5444646 L2.7876588,14.6352087 C2.7876588,15.0200915 3.09969074,15.3321234 3.4845735,15.3321234 L12.7767695,15.3321234 C13.1616523,15.3321234 13.4736842,15.0200915 13.4736842,14.6352087 L13.4736842,3.4845735 C13.4736842,3.09969074 13.1616523,2.7876588 12.7767695,2.7876588 L10.6860254,2.7876588 L10.6860254,0.696914701 C10.6860254,0.312031942 10.3739935,0 9.98911071,0 L0.696914701,0 C0.312031942,0 0,0.312031942 0,0.696914701 L0,11.8475499 C0,12.2324327 0.312031942,12.5444646 0.696914701,12.5444646 Z M12.0798548,13.938294 L4.1814882,13.938294 L4.1814882,4.1814882 L12.0798548,4.1814882 L12.0798548,13.938294 Z M1.3938294,1.3938294 L9.29219601,1.3938294 L9.29219601,2.7876588 L3.4845735,2.7876588 C3.09969074,2.7876588 2.7876588,3.09969074 2.7876588,3.4845735 L2.7876588,11.1506352 L1.3938294,11.1506352 L1.3938294,1.3938294 Z" id="Shape" fill="#000000" fill-rule="nonzero"></path>
                    <path d="M6.2722323,5.5753176 C5.88734955,5.5753176 5.5753176,5.88734955 5.5753176,6.2722323 C5.5753176,6.65711506 5.88734955,6.96914701 6.2722323,6.96914701 L9.98911071,6.96914701 C10.3739935,6.96914701 10.6860254,6.65711506 10.6860254,6.2722323 C10.6860254,5.88734955 10.3739935,5.5753176 9.98911071,5.5753176 L6.2722323,5.5753176 Z" id="Path" fill="#000000" fill-rule="nonzero"></path>
                    <path d="M9.98911071,8.36297641 L6.2722323,8.36297641 C5.88734955,8.36297641 5.5753176,8.67500835 5.5753176,9.05989111 C5.5753176,9.44477387 5.88734955,9.75680581 6.2722323,9.75680581 L9.98911071,9.75680581 C10.3739935,9.75680581 10.6860254,9.44477387 10.6860254,9.05989111 C10.6860254,8.67500835 10.3739935,8.36297641 9.98911071,8.36297641 Z" id="Path" fill="#000000" fill-rule="nonzero"></path>
                    <path d="M9.98911071,11.1506352 L6.2722323,11.1506352 C5.88734955,11.1506352 5.5753176,11.4626672 5.5753176,11.8475499 C5.5753176,12.2324327 5.88734955,12.5444646 6.2722323,12.5444646 L9.98911071,12.5444646 C10.3739935,12.5444646 10.6860254,12.2324327 10.6860254,11.8475499 C10.6860254,11.4626672 10.3739935,11.1506352 9.98911071,11.1506352 Z" id="Path" fill="#000000" fill-rule="nonzero"></path>
                </g>
            </g>
        </g>
    </g>
</svg>